<?xml version="1.0" standalone="no"?>
<!DOCTYPE svg PUBLIC "-//W3C//DTD SVG 1.1//EN" "http://www.w3.org/Graphics/SVG/1.1/DTD/svg11.dtd" >
<svg xmlns="http://www.w3.org/2000/svg" xmlns:xlink="http://www.w3.org/1999/xlink" version="1.1">
<metadata>
Created by FontForge 20150715 at Sat Oct 24 04:02:55 2015
 By Jimmy Wärting
Copyright (c) 1990 Adobe Systems Incorporated.  All Rights Reserved.Insignia is a trademark of Linotype AG and/or its subsidiaries.
</metadata>
<defs>
<font id="Insignia" horiz-adv-x="611" >
  <font-face 
    font-family="Insignia"
    font-weight="400"
    font-stretch="normal"
    units-per-em="1000"
    panose-1="2 11 5 0 0 0 0 0 0 0"
    ascent="800"
    descent="-200"
    x-height="484"
    cap-height="628"
    bbox="-79 -198 1064 825"
    underline-thickness="50"
    underline-position="-100"
    unicode-range="U+0020-2122"
  />
<missing-glyph horiz-adv-x="502" 
d="M-1 0h500v500h-500v-500zM9 10v480h480v-480h-480z" />
    <glyph glyph-name=".notdef" horiz-adv-x="502" 
d="M-1 0h500v500h-500v-500zM9 10v480h480v-480h-480z" />
    <glyph glyph-name="space" unicode=" " horiz-adv-x="268" 
 />
    <glyph glyph-name="exclam" unicode="!" horiz-adv-x="278" 
d="M95 162h88l26 466h-140zM78 48q0 -25 18 -43t43 -18t43 18t18 43t-18 43t-43 18t-43 -18t-18 -43z" />
    <glyph glyph-name="quotedbl" unicode="&#x22;" horiz-adv-x="352" 
d="M209 442h104v186h-104v-186zM39 442h104v186h-104v-186z" />
    <glyph glyph-name="numbersign" unicode="#" horiz-adv-x="600" 
d="M57 179h83l-25 -179h89l25 179h104l-25 -179h89l25 179h95v86h-83l14 98h95v86h-83l25 179h-89l-25 -179h-104l25 179h-89l-25 -179h-95v-86h83l-14 -98h-95v-86zM255 363h104l-14 -98h-104z" />
    <glyph glyph-name="dollar" unicode="$" horiz-adv-x="630" 
d="M252 -116h110v108q94 13 156.5 68t62.5 137q0 53 -21.5 87.5t-56.5 52.5t-74 26t-96 16q-42 5 -67 9.5t-45.5 12.5t-32.5 22t-12 35q0 33 33 59t99 26q47 0 88 -17t82 -58l86 77q-79 81 -202 93v102h-110v-104q-87 -15 -142.5 -64.5t-55.5 -119.5q0 -52 21.5 -86
t56.5 -52t72 -26t98 -16q39 -6 65 -10.5t47 -12.5t33 -22.5t12 -35.5q0 -44 -41 -68.5t-109 -25.5q-53 0 -101 23t-85 62l-88 -79q46 -48 102.5 -76t114.5 -36v-107z" />
    <glyph glyph-name="percent" unicode="%" horiz-adv-x="480" 
d="M268 111q0 -39 27.5 -66.5t66.5 -27.5t66.5 27.5t27.5 66.5t-27.5 66.5t-66.5 27.5t-66.5 -27.5t-27.5 -66.5zM320 111q0 17 12.5 29.5t29.5 12.5t29.5 -12.5t12.5 -29.5t-12.5 -29.5t-29.5 -12.5t-29.5 12.5t-12.5 29.5zM24 517q0 -39 27.5 -66.5t66.5 -27.5t66.5 27.5
t27.5 66.5t-27.5 66.5t-66.5 27.5t-66.5 -27.5t-27.5 -66.5zM76 517q0 17 12.5 29.5t29.5 12.5t29.5 -12.5t12.5 -29.5t-12.5 -29.5t-29.5 -12.5t-29.5 12.5t-12.5 29.5zM88 0h96l208 628h-96z" />
    <glyph glyph-name="ampersand" unicode="&#x26;" horiz-adv-x="648" 
d="M475 559q-26 39 -71 60.5t-102 21.5q-97 0 -152 -51t-55 -121q0 -45 23 -78.5t59 -45.5v-2q-60 -17 -92 -60t-32 -100q0 -46 19 -83t51.5 -62t75.5 -38t91 -13q59 0 108 21t83.5 59t52.5 89.5t18 111.5v39h65v70h-172l1 -16q2 -35 2 -57q0 -106 -37 -165.5t-119 -59.5
q-62 0 -95.5 31.5t-33.5 75.5q0 50 38.5 79.5t94.5 29.5q21 0 33 -3v89h-31q-50 0 -74.5 24t-24.5 66q0 36 28.5 60t67.5 24q26 0 47.5 -12t35.5 -31z" />
    <glyph glyph-name="quotesingle" unicode="'" horiz-adv-x="222" 
d="M59 442h104v186h-104v-186z" />
    <glyph glyph-name="parenleft" unicode="(" horiz-adv-x="278" 
d="M193 695q-77 -104 -112.5 -203t-35.5 -203t35.5 -203t112.5 -203l85 66q-35 54 -58.5 100t-36 87t-17.5 77t-5 76t5 76.5t17.5 77t36 86.5t58.5 100z" />
    <glyph glyph-name="parenright" unicode=")" horiz-adv-x="278" 
d="M85 -117q78 104 113 203t35 203t-35 203t-113 203l-85 -66q36 -54 59 -100t35.5 -86.5t17.5 -77t5 -76.5t-5 -76t-17.5 -77t-35.5 -87t-59 -100z" />
    <glyph glyph-name="asterisk" unicode="*" horiz-adv-x="296" 
d="M117 542l-82 26l-20 -58l82 -28l-51 -70l50 -34l52 72l52 -72l50 34l-51 70l82 28l-20 58l-82 -26v86h-62v-86z" />
    <glyph glyph-name="plus" unicode="+" horiz-adv-x="600" 
d="M248 305h-201v-104h201v-201h104v201h201v104h-201v201h-104v-201z" />
    <glyph glyph-name="comma" unicode="," horiz-adv-x="268" 
d="M82 -83l104 70v116h-104v-186z" />
    <glyph glyph-name="hyphen" unicode="-" horiz-adv-x="296" 
d="M48 272h200v98h-200v-98z" />
    <glyph glyph-name="period" unicode="." horiz-adv-x="268" 
d="M73 48q0 -25 18 -43t43 -18t43 18t18 43t-18 43t-43 18t-43 -18t-18 -43z" />
    <glyph glyph-name="slash" unicode="/" horiz-adv-x="333" 
d="M-5 -13h110l233 654h-110z" />
    <glyph glyph-name="zero" unicode="0" horiz-adv-x="536" 
d="M57 205q0 -103 61.5 -160.5t149.5 -57.5t149.5 57.5t61.5 160.5v218q0 104 -61.5 161t-149.5 57t-149.5 -57t-61.5 -161v-218zM173 430q0 49 28 75t67 26q40 0 67.5 -26t27.5 -75v-232q0 -49 -27.5 -75t-67.5 -26q-39 0 -67 26t-28 75v232z" />
    <glyph glyph-name="one" unicode="1" horiz-adv-x="316" 
d="M112 0h116v641l-200 -120v-121l84 57v-457z" />
    <glyph glyph-name="two" unicode="2" horiz-adv-x="556" 
d="M40 0h467v104h-321v2l218 165q51 39 78 81.5t27 91.5q0 83 -61.5 140t-166.5 57q-80 0 -145.5 -36.5t-108.5 -99.5l108 -41q24 37 60 58t79 21q49 0 84 -28t35 -69q0 -51 -54 -95l-299 -236v-115z" />
    <glyph glyph-name="three" unicode="3" horiz-adv-x="536" 
d="M37 524h246l-147 -192q25 6 40.5 8.5t35.5 2.5q76 0 120 -35.5t44 -90.5q0 -51 -40.5 -88.5t-99.5 -37.5q-37 0 -73 16t-65 44l-90 -72q44 -48 100.5 -70t123.5 -22q61 0 109.5 19.5t82.5 53.5t51 76t17 85q0 41 -14 75.5t-39 59.5t-56.5 39.5t-64.5 15.5l174 217h-455
v-104z" />
    <glyph glyph-name="four" unicode="4" horiz-adv-x="520" 
d="M303 0h110v151h87v104h-87v151h-110v-151h-136l165 373h-114l-210 -477h295v-151z" />
    <glyph glyph-name="five" unicode="5" horiz-adv-x="536" 
d="M58 290h90q20 24 48 37.5t66 13.5q53 0 88 -35t36 -87q0 -53 -38 -90.5t-94 -37.5q-44 0 -80.5 16.5t-60.5 45.5l-92 -78q56 -48 109.5 -68t121.5 -20q62 0 109.5 20.5t78.5 54.5t46.5 75.5t15.5 83.5q0 52 -18 93t-48.5 68.5t-68.5 42t-77 14.5q-71 0 -112 -30l15 115
h269v104h-371z" />
    <glyph glyph-name="six" unicode="6" horiz-adv-x="536" 
d="M257 650l-163 -272q-31 -52 -44.5 -92t-13.5 -90q0 -37 15 -73.5t44 -67.5t73 -49.5t100 -18.5q53 0 96.5 17t74 47.5t46 71.5t15.5 87q0 42 -14.5 80.5t-42 68t-66 46t-83.5 16.5q-16 0 -27 -1t-25 -4l129 194zM146 207q0 50 36 86t86 36t86 -36t36 -86t-36 -86t-86 -36
t-86 36t-36 86z" />
    <glyph glyph-name="seven" unicode="7" horiz-adv-x="500" 
d="M38 418h110v106h194l-219 -524h114l263 628h-462v-210z" />
    <glyph glyph-name="eight" unicode="8" horiz-adv-x="556" 
d="M47 187q0 -88 65 -144q30 -27 73 -41.5t93 -14.5t92.5 14.5t74.5 41.5q64 56 64 144q0 57 -32.5 98.5t-84.5 56.5q42 21 61.5 57.5t19.5 72.5q0 35 -15 66t-42 54t-62.5 36t-75.5 13t-75.5 -13t-62.5 -36t-42 -54t-15 -66q0 -36 19.5 -72.5t61.5 -57.5
q-52 -15 -84.5 -56.5t-32.5 -98.5zM193 466q0 33 23.5 61t61.5 28t61.5 -28t23.5 -61t-23.5 -61t-61.5 -28t-61.5 28t-23.5 61zM157 189q0 41 31.5 71.5t89.5 30.5t89.5 -30.5t31.5 -71.5q0 -40 -32 -72t-89 -32t-89 32t-32 72z" />
    <glyph glyph-name="nine" unicode="9" horiz-adv-x="536" 
d="M279 -22l163 272q31 52 44.5 92t13.5 90q0 37 -14.5 73.5t-44 67.5t-73.5 49.5t-100 18.5q-53 0 -96.5 -17t-74 -47.5t-46 -71t-15.5 -87.5q0 -42 14.5 -80.5t42 -68t66 -46t83.5 -16.5q16 0 27 1.5t25 3.5l-129 -194zM390 421q0 -50 -36 -86t-86 -36t-86 36t-36 86
t36 86t86 36t86 -36t36 -86z" />
    <glyph glyph-name="colon" unicode=":" horiz-adv-x="268" 
d="M73 436q0 -25 18 -43t43 -18t43 18t18 43t-18 43t-43 18t-43 -18t-18 -43zM73 48q0 -25 18 -43t43 -18t43 18t18 43t-18 43t-43 18t-43 -18t-18 -43z" />
    <glyph glyph-name="semicolon" unicode=";" horiz-adv-x="268" 
d="M82 -83l104 70v116h-104v-186zM73 436q0 -25 18 -43t43 -18t43 18t18 43t-18 43t-43 18t-43 -18t-18 -43z" />
    <glyph glyph-name="less" unicode="&#x3c;" horiz-adv-x="600" 
d="M47 210l506 -218v102l-373 159l373 159v102l-506 -218v-86z" />
    <glyph glyph-name="equal" unicode="=" horiz-adv-x="600" 
d="M47 311h506v104h-506v-104zM47 91h506v104h-506v-104z" />
    <glyph glyph-name="greater" unicode="&#x3e;" horiz-adv-x="600" 
d="M553 296l-506 218v-102l373 -159l-373 -159v-102l506 218v86z" />
    <glyph glyph-name="question" unicode="?" horiz-adv-x="556" 
d="M207 162h92v44q43 0 80 15t65 43t43 66.5t15 82.5q0 50 -18 92t-52 72.5t-80.5 47t-101.5 16.5q-130 0 -213 -97l79 -70q31 32 63 47.5t71 15.5q55 0 92.5 -35t37.5 -88q0 -55 -40 -89.5t-104 -34.5q-15 0 -29 3v-131zM192 48q0 -25 18 -43t43 -18t43 18t18 43t-18 43
t-43 18t-43 -18t-18 -43z" />
    <glyph glyph-name="at" unicode="@" horiz-adv-x="800" 
d="M308 285q0 42 30 76.5t75 34.5q29 0 47.5 -19t18.5 -46q0 -47 -29.5 -82.5t-73.5 -35.5q-31 0 -49.5 20.5t-18.5 51.5zM521 475l-11 -46q-37 59 -116 59q-30 0 -62 -15.5t-58 -43.5t-42 -66t-16 -80q0 -33 11.5 -62t31.5 -50t44.5 -32.5t47.5 -11.5q33 0 56 12t40 35h2
q2 -19 16.5 -33t39.5 -14q24 0 61 13.5t74 42.5t62 77t25 113q0 59 -25.5 109t-70.5 85.5t-102.5 54.5t-120.5 19q-68 0 -129.5 -25t-107.5 -70.5t-72 -105t-26 -126.5t26 -126.5t72.5 -105t107.5 -70.5t129 -25q92 0 164 36t118 103h-78q-73 -65 -204 -65q-51 0 -96 19
t-79.5 54t-54 81.5t-19.5 98.5t19.5 99t54 81.5t79.5 53.5t96 19q108 0 176.5 -57.5t68.5 -157.5q0 -66 -30.5 -108.5t-67.5 -42.5q-14 0 -14 18q0 12 5 30l53 226h-78z" />
    <glyph glyph-name="A" unicode="A" 
d="M0 0h124l48 118h266l48 -118h125l-266 628h-260v-104h144zM214 222l92 225l91 -225h-183z" />
    <glyph glyph-name="B" unicode="B" horiz-adv-x="667" 
d="M90 0h358q84 0 138.5 49.5t54.5 132.5q0 58 -30.5 97.5t-81.5 55.5q36 16 56.5 49t20.5 76q0 80 -52 124t-129 44h-335v-251h-75v-110h75v-267zM206 518h206q37 0 57.5 -20.5t20.5 -49.5q0 -30 -20.5 -50.5t-57.5 -20.5h-206v141zM206 267h229q39 0 64.5 -22.5
t25.5 -56.5q0 -33 -25.5 -55.5t-64.5 -22.5h-229v157z" />
    <glyph glyph-name="C" unicode="C" horiz-adv-x="667" 
d="M544 184q-30 -41 -75.5 -64t-98.5 -23q-42 0 -81 16.5t-69 46.5t-47.5 69.5t-17.5 84.5t17.5 84.5t47.5 69.5t69 46.5t81 16.5q53 0 97.5 -23.5t74.5 -67.5l96 72q-51 64 -120.5 96.5t-147.5 32.5q-69 0 -131 -25t-108 -69.5t-72 -104.5t-26 -128t26 -127.5t72.5 -104.5
t108 -70t130.5 -25q78 0 147.5 32.5t120.5 96.5z" />
    <glyph glyph-name="D" unicode="D" horiz-adv-x="722" 
d="M87 0h265q76 0 138.5 25t107 69t68 101t23.5 119q0 63 -23 119.5t-67 100.5t-106.5 69t-140.5 25h-265v-628zM203 518h149q50 0 91 -16t70 -44t44.5 -65t15.5 -79q0 -41 -15.5 -78.5t-44.5 -65.5t-70 -44t-91 -16h-149v408z" />
    <glyph glyph-name="E" unicode="E" 
d="M90 0h482v110h-366v157h255v110h-255v141h366v110h-482v-251h-75v-110h75v-267z" />
    <glyph glyph-name="F" unicode="F" horiz-adv-x="556" 
d="M90 0h116v267h255v110h-255v141h366v110h-482v-251h-75v-110h75v-267z" />
    <glyph glyph-name="G" unicode="G" horiz-adv-x="740" 
d="M33 314q0 -68 26 -127.5t72.5 -104.5t108 -70t130.5 -25q86 0 151 31.5t106 80t60.5 101t19.5 94.5v83h-338v-110h214q-18 -79 -76 -124.5t-137 -45.5q-42 0 -81 16.5t-69 46.5t-47.5 69.5t-17.5 84.5t17.5 84.5t47.5 69.5t69 46.5t81 16.5q53 0 97.5 -23.5t74.5 -67.5
l96 72q-51 64 -120.5 96.5t-147.5 32.5q-69 0 -131 -25t-108 -69.5t-72 -104.5t-26 -128z" />
    <glyph glyph-name="H" unicode="H" horiz-adv-x="685" 
d="M90 0h116v267h287v-267h116v628h-116v-251h-287v251h-116v-251h-75v-110h75v-267z" />
    <glyph glyph-name="I" unicode="I" horiz-adv-x="278" 
d="M81 0h116v628h-116v-628z" />
    <glyph glyph-name="J" unicode="J" horiz-adv-x="352" 
d="M64 518h101v-239q0 -80 -38 -127.5t-120 -54.5v-110q55 0 105 19t88 55t59.5 89t21.5 119v359h-217v-110z" />
    <glyph glyph-name="K" unicode="K" 
d="M90 0h116v267h77l183 -267h148l-251 351l242 277h-145l-211 -251h-43v251h-116v-251h-75v-110h75v-267z" />
    <glyph glyph-name="L" unicode="L" horiz-adv-x="593" 
d="M79 0h479v260h-116v-150h-247v518h-116v-628z" />
    <glyph glyph-name="M" unicode="M" horiz-adv-x="704" 
d="M73 0h116v388l163 -169l163 169v-388h116v641l-279 -282l-279 282v-641z" />
    <glyph glyph-name="N" unicode="N" horiz-adv-x="667" 
d="M594 -13v641h-116v-385l-405 398v-641h116v385z" />
    <glyph glyph-name="O" unicode="O" horiz-adv-x="740" 
d="M33 314q0 -68 26 -127.5t72.5 -104.5t108 -70t130.5 -25q70 0 131.5 25t107.5 69.5t72 104.5t26 128t-25.5 128t-72.5 104.5t-108 69.5t-131 25q-69 0 -131 -25t-108 -69.5t-72 -104.5t-26 -128zM155 314q0 45 17.5 84.5t47.5 69.5t69 46.5t81 16.5t81 -16.5t69.5 -46.5
t47.5 -69.5t17 -84.5t-17 -84.5t-47.5 -69.5t-69.5 -46.5t-81 -16.5t-81 16.5t-69 46.5t-47.5 69.5t-17.5 84.5z" />
    <glyph glyph-name="P" unicode="P" horiz-adv-x="630" 
d="M90 0h116v198h183q103 0 164.5 60.5t61.5 154.5t-61.5 154.5t-164.5 60.5h-299v-320h-75v-110h75v-198zM206 518h174q58 0 88.5 -30t30.5 -75t-30.5 -75t-88.5 -30h-174v210z" />
    <glyph glyph-name="Q" unicode="Q" horiz-adv-x="740" 
d="M318 105q-69 17 -115 74q-23 28 -35.5 62.5t-12.5 72.5q0 45 17.5 84.5t47.5 69.5t69 46.5t81 16.5t81 -16.5t69.5 -46.5t47.5 -69.5t17 -84.5q0 -76 -46.5 -133.5t-116.5 -75.5v99h-104v-99zM318 -92h104v83q61 9 113 37t91 71.5t60 98.5t21 116q0 68 -25.5 128
t-72.5 104.5t-108 69.5t-131 25q-69 0 -131 -25t-108 -69.5t-72 -104.5t-26 -128q0 -61 21.5 -116t60 -98.5t90.5 -71.5t113 -37v-83z" />
    <glyph glyph-name="R" unicode="R" horiz-adv-x="648" 
d="M90 0h116v198h142l131 -198h146l-157 224q65 20 106 71t41 118q0 94 -61.5 154.5t-164.5 60.5h-299v-320h-75v-110h75v-198zM206 518h174q58 0 88.5 -30t30.5 -75t-30.5 -75t-88.5 -30h-174v210z" />
    <glyph glyph-name="S" unicode="S" 
d="M25 103q56 -59 127 -87.5t142 -28.5q54 0 104 14.5t89 42t61.5 66.5t22.5 87q0 53 -21.5 87.5t-56.5 52.5t-74 26t-96 16q-42 5 -67 9.5t-45.5 12.5t-32.5 22t-12 35q0 33 33 59t99 26q47 0 88 -17t82 -58l86 77q-94 96 -250 96q-53 0 -100.5 -13.5t-83.5 -39t-56 -60.5
t-20 -76q0 -52 21.5 -86t56.5 -52t72 -26t98 -16q39 -6 65 -10.5t47 -12.5t33 -22.5t12 -35.5q0 -44 -41 -68.5t-109 -25.5q-53 0 -101 23t-85 62z" />
    <glyph glyph-name="T" unicode="T" horiz-adv-x="520" 
d="M202 0h116v518h184v110h-484v-110h184v-518z" />
    <glyph glyph-name="U" unicode="U" horiz-adv-x="704" 
d="M73 256q0 -54 20 -103t57 -86.5t88.5 -58.5t113.5 -21t113.5 21t88.5 58.5t57 86.5t20 103v372h-116v-347q0 -84 -46.5 -134t-116.5 -50q-69 0 -116 50t-47 134v347h-116v-372z" />
    <glyph glyph-name="V" unicode="V" horiz-adv-x="556" 
d="M278 -13l278 641h-125l-153 -384l-153 384h-125z" />
    <glyph glyph-name="W" unicode="W" horiz-adv-x="833" 
d="M265 -13l151 364l145 -364l263 641h-123l-140 -372l-145 338l-143 -338l-142 372h-122z" />
    <glyph glyph-name="X" unicode="X" horiz-adv-x="556" 
d="M19 0h130l129 213l121 -213h138l-193 314l193 314h-130l-129 -213l-121 213h-138l193 -314z" />
    <glyph glyph-name="Y" unicode="Y" horiz-adv-x="574" 
d="M229 0h116v277l225 351h-134l-149 -244l-149 244h-134l225 -351v-277z" />
    <glyph glyph-name="Z" unicode="Z" horiz-adv-x="593" 
d="M31 0h527v110h-328l332 518h-513v-110h309z" />
    <glyph glyph-name="bracketleft" unicode="[" horiz-adv-x="278" 
d="M80 -96h218v98h-108v574h108v98h-218v-770z" />
    <glyph glyph-name="backslash" unicode="\" horiz-adv-x="333" 
d="M228 -13h110l-233 654h-110z" />
    <glyph glyph-name="bracketright" unicode="]" horiz-adv-x="278" 
d="M88 2h-108v-98h218v770h-218v-98h108v-574z" />
    <glyph glyph-name="asciicircum" unicode="^" horiz-adv-x="600" 
d="M66 243h104l130 281l130 -281h104l-187 385h-94z" />
    <glyph glyph-name="underscore" unicode="_" horiz-adv-x="500" 
d="M0 -125h500v50h-500v-50z" />
    <glyph glyph-name="grave" unicode="`" horiz-adv-x="240" 
d="M2 587l196 -50v72l-196 50v-72z" />
    <glyph glyph-name="a" unicode="a" horiz-adv-x="612" 
d="M442 0h104v484h-104v-59h-2q-21 32 -61.5 52t-92.5 20q-56 0 -104 -22t-82 -59.5t-52 -83t-18 -90.5q0 -47 17 -93t50 -82.5t80 -58t104 -21.5q49 0 91.5 19.5t67.5 52.5h2v-59zM140 242q0 32 12 60.5t33.5 50.5t49.5 34t59 12q30 0 58 -12t49 -34t33 -50.5t12 -60.5
t-12 -60.5t-33 -50.5t-49 -34t-58 -12q-31 0 -59 12t-49.5 34t-33.5 50.5t-12 60.5z" />
    <glyph glyph-name="b" unicode="b" horiz-adv-x="612" 
d="M66 0h104v59h2q19 -31 63.5 -51.5t94.5 -20.5q48 0 93.5 17.5t81 50.5t56.5 80.5t21 106.5t-21 106.5t-57 80.5t-81 50.5t-93 17.5q-50 0 -94.5 -20.5t-63.5 -51.5h-2v203h-104v-628zM472 242q0 -67 -43 -112t-108 -45t-108 45t-43 112q0 68 43 112.5t108 44.5t108 -44.5
t43 -112.5z" />
    <glyph glyph-name="c" unicode="c" horiz-adv-x="537" 
d="M514 380q-38 55 -91 86t-126 31q-61 0 -111 -21t-85 -57.5t-53 -82.5t-18 -94t18 -94t53 -82.5t85 -57.5t111 -21q68 0 126 32.5t91 84.5l-91 54q-22 -35 -53.5 -54t-72.5 -19q-67 0 -112 45.5t-45 111.5t45 111.5t112 45.5q42 0 73 -19t53 -54z" />
    <glyph glyph-name="d" unicode="d" horiz-adv-x="612" 
d="M442 0h104v628h-104v-203h-2q-21 32 -61.5 52t-92.5 20q-56 0 -104 -22t-82 -59.5t-52 -83t-18 -90.5q0 -47 17 -93t50 -82.5t80 -58t104 -21.5q49 0 91.5 19.5t67.5 52.5h2v-59zM140 242q0 32 12 60.5t33.5 50.5t49.5 34t59 12q30 0 58 -12t49 -34t33 -50.5t12 -60.5
t-12 -60.5t-33 -50.5t-49 -34t-58 -12q-31 0 -59 12t-49.5 34t-33.5 50.5t-12 60.5z" />
    <glyph glyph-name="e" unicode="e" horiz-adv-x="594" 
d="M442 154q-56 -75 -140 -75q-56 0 -100 36.5t-48 90.5h402v19q0 67 -23.5 119t-62 86t-82 50.5t-83.5 16.5q-61 0 -111 -21t-85 -57.5t-53 -82.5t-18 -94t18 -94t53 -82.5t85 -57.5t111 -21q64 1 122.5 32t102.5 86zM154 292q13 53 50 83t87 30t88.5 -29t54.5 -84h-280z
" />
    <glyph glyph-name="f" unicode="f" horiz-adv-x="315" 
d="M93 -167h104v453h104v98h-104v88q0 29 18.5 50t48.5 21q25 0 46 -9l43 94q-16 7 -38 10t-42 3q-88 0 -134 -50.5t-46 -124.5v-82h-68v-98h68v-453z" />
    <glyph glyph-name="g" unicode="g" horiz-adv-x="594" 
d="M528 484h-98v-57h-2q-53 70 -151 70q-49 0 -93.5 -17t-79 -49t-54.5 -79t-20 -105q0 -56 18.5 -102t51.5 -78.5t75.5 -49.5t89.5 -17q52 0 91.5 18.5t73.5 56.5v-32q0 -60 -42 -101.5t-118 -41.5q-34 0 -65.5 18t-48.5 42l-85 -62q39 -48 94 -72t110 -24q49 0 95 17
t81.5 50t56 80t20.5 105v430zM140 249q0 62 42.5 106t103.5 44q29 0 55.5 -11.5t46.5 -32.5t31 -48.5t11 -58.5q0 -63 -41 -106.5t-103 -43.5q-65 0 -105.5 43.5t-40.5 107.5z" />
    <glyph glyph-name="h" unicode="h" horiz-adv-x="574" 
d="M66 0h104v271q0 58 33.5 90t85.5 32q54 0 84.5 -30t30.5 -94v-269h104v292q0 44 -15 82t-41 65.5t-60 42.5t-72 15q-49 0 -87.5 -20t-60.5 -54h-2v205h-104v-628z" />
    <glyph glyph-name="i" unicode="i" horiz-adv-x="240" 
d="M68 0h104v484h-104v-484zM62 583q0 -24 17 -41t41 -17t41 17t17 41t-17 41t-41 17t-41 -17t-17 -41z" />
    <glyph glyph-name="j" unicode="j" horiz-adv-x="240" 
d="M68 2q0 -42 -18 -65t-73 -52l42 -83q82 37 117.5 82.5t35.5 110.5v489h-104v-482zM62 583q0 -24 17 -41t41 -17t41 17t17 41t-17 41t-41 17t-41 -17t-17 -41z" />
    <glyph glyph-name="k" unicode="k" horiz-adv-x="500" 
d="M82 0h104v202h63l128 -202h123l-172 256l164 228h-126l-127 -184h-53v328h-104v-328h-68v-98h68v-202z" />
    <glyph glyph-name="l" unicode="l" horiz-adv-x="260" 
d="M68 628v-452q0 -71 35 -109t122 -80l46 82l-56 32q-24 14 -33.5 33.5t-9.5 60.5v433h-104z" />
    <glyph glyph-name="m" unicode="m" horiz-adv-x="778" 
d="M66 0h104v302q0 42 23 66.5t57 24.5q40 0 63.5 -25.5t23.5 -79.5v-288h104v288q0 54 23.5 79.5t63.5 25.5q34 0 57 -24.5t23 -66.5v-302h104v303q0 89 -51.5 141.5t-125.5 52.5q-53 0 -91.5 -23.5t-53.5 -62.5h-2q-15 39 -53 62.5t-92 23.5q-74 0 -125.5 -52.5
t-51.5 -141.5v-303z" />
    <glyph glyph-name="n" unicode="n" horiz-adv-x="574" 
d="M66 0h104v271q0 58 33.5 90t85.5 32q54 0 84.5 -30t30.5 -94v-269h104v292q0 44 -15 82t-41 65.5t-60 42.5t-72 15q-49 0 -87.5 -20t-60.5 -54h-2v61h-104v-484z" />
    <glyph glyph-name="o" unicode="o" horiz-adv-x="594" 
d="M30 242q0 -48 18 -94t53 -82.5t85 -57.5t111 -21t111 21t85 57.5t53 82.5t18 94t-18 94t-53 82.5t-85 57.5t-111 21t-111 -21t-85 -57.5t-53 -82.5t-18 -94zM140 242q0 66 45 111.5t112 45.5q68 0 112.5 -45.5t44.5 -111.5t-44.5 -111.5t-112.5 -45.5q-67 0 -112 45.5
t-45 111.5z" />
    <glyph glyph-name="p" unicode="p" horiz-adv-x="612" 
d="M170 484h-104v-651h104v226h2q21 -32 61.5 -52t92.5 -20q57 0 104.5 22t81.5 59.5t52 83t18 90.5q0 47 -17 93t-50 82.5t-80 58t-104 21.5q-49 0 -90 -18.5t-69 -53.5h-2v59zM472 242q0 -32 -12 -60.5t-33.5 -50.5t-49.5 -34t-59 -12q-30 0 -57.5 12t-49 34t-33.5 50.5
t-12 60.5t12 60.5t33.5 50.5t49 34t57.5 12q31 0 59 -12t49.5 -34t33.5 -50.5t12 -60.5z" />
    <glyph glyph-name="q" unicode="q" horiz-adv-x="612" 
d="M442 -167h104v651h-104v-59h-2q-28 35 -69 53.5t-90 18.5q-57 0 -104 -21.5t-80 -58t-50 -82.5t-17 -93q0 -45 18 -90t52 -83t82 -60t104 -22q52 0 92.5 20t61.5 52h2v-226zM140 242q0 32 12 60.5t33.5 50.5t49.5 34t59 12q30 0 58 -12t49 -34t33 -50.5t12 -60.5
t-12 -60.5t-33 -50.5t-49 -34t-58 -12q-31 0 -59 12t-49.5 34t-33.5 50.5t-12 60.5z" />
    <glyph glyph-name="r" unicode="r" horiz-adv-x="315" 
d="M66 0h104v320q0 32 21 52.5t51 20.5q8 0 20 -4t19 -10l37 103q-23 15 -57 15q-31 0 -56.5 -18t-38.5 -48h-2v53h-98v-484z" />
    <glyph glyph-name="s" unicode="s" horiz-adv-x="463" 
d="M20 72q100 -85 218 -85q52 0 91.5 14.5t64.5 39t37 53t12 56.5q0 105 -128 129l-105 20q-63 11 -63 51q0 28 26.5 44.5t62.5 16.5q29 0 62 -12t68 -42l59 73q-49 35 -95 51t-97 16q-87 0 -138.5 -46.5t-51.5 -111.5q0 -55 38 -87.5t136 -50.5l59 -11q30 -5 46.5 -19
t16.5 -37q0 -22 -27 -41.5t-69 -19.5q-39 0 -81 20t-71 51z" />
    <glyph glyph-name="t" unicode="t" horiz-adv-x="296" 
d="M22 386h59v-210q0 -71 35 -109t122 -80l46 82l-56 32q-23 14 -33 34.5t-10 59.5v191h83v98h-83v157l-104 -29v-128h-59v-98z" />
    <glyph glyph-name="u" unicode="u" horiz-adv-x="574" 
d="M66 204q0 -49 18 -89.5t49 -69t71 -43.5t83 -15t83 15t71 43.5t49 69t18 89.5v280h-104v-271q0 -53 -34 -87.5t-83 -34.5t-83 34.5t-34 87.5v271h-104v-280z" />
    <glyph glyph-name="v" unicode="v" horiz-adv-x="444" 
d="M222 -13l224 497h-116l-107 -277h-2l-107 277h-116z" />
    <glyph glyph-name="w" unicode="w" horiz-adv-x="612" 
d="M192 -13l113 262h2l113 -262l187 497h-112l-86 -262h-2l-101 232l-101 -232h-2l-86 262h-112z" />
    <glyph glyph-name="x" unicode="x" horiz-adv-x="482" 
d="M9 0h123l107 162l102 -162h132l-177 243l170 241h-122l-99 -166l-101 166h-130l171 -247z" />
    <glyph glyph-name="y" unicode="y" horiz-adv-x="574" 
d="M66 204q0 -99 56 -158t140 -59q49 0 82 15.5t64 50.5h2v-26q0 -61 -37 -94t-92 -33q-32 0 -58.5 12.5t-52.5 38.5l-88 -54q41 -48 85.5 -71.5t119.5 -23.5q36 0 74 13t72 39.5t54.5 67t20.5 93.5v469h-104v-274q0 -58 -30.5 -91.5t-89.5 -33.5q-51 0 -82.5 28.5
t-31.5 86.5v284h-104v-280z" />
    <glyph glyph-name="z" unicode="z" horiz-adv-x="444" 
d="M18 0h402v98h-229l235 386h-388v-98h214z" />
    <glyph glyph-name="braceleft" unicode="{" horiz-adv-x="278" 
d="M-10 248q34 0 62 -18.5t28 -40.5v-174q0 -49 39 -80t84 -31h95v80h-54q-26 0 -40 13.5t-14 40.5v160q0 37 -30 63.5t-68 26.5v2q38 0 68 26.5t30 63.5v160q0 28 14 41t40 13h54v80h-95q-45 0 -84 -31t-39 -80v-174q0 -21 -28 -40t-62 -19v-82z" />
    <glyph glyph-name="bar" unicode="|" horiz-adv-x="222" 
d="M59 -13h104v654h-104v-654z" />
    <glyph glyph-name="braceright" unicode="}" horiz-adv-x="278" 
d="M288 330q-34 0 -62 19t-28 40v174q0 49 -39 80t-84 31h-95v-80h54q26 0 40 -13t14 -41v-160q0 -37 30 -63.5t68 -26.5v-2q-38 0 -68 -26.5t-30 -63.5v-160q0 -27 -14 -40.5t-40 -13.5h-54v-80h95q45 0 84 31t39 80v174q0 22 28 40.5t62 18.5v82z" />
    <glyph glyph-name="asciitilde" unicode="~" horiz-adv-x="600" 
d="M105 163q15 32 34.5 52.5t49.5 20.5q25 0 47.5 -7t65.5 -29v0q32 -17 54.5 -25t49.5 -8q36 0 67.5 23t57.5 61l-36 92q-21 -34 -44 -53t-44 -19q-14 0 -32.5 6.5t-48.5 20.5l-17 8q-77 34 -115 34q-41 0 -73 -21t-52 -64z" />
    <glyph glyph-name="quotesinglbase" unicode="&#x201a;" horiz-adv-x="222" 
d="M59 -83l104 70v116h-104v-186z" />
    <glyph glyph-name="florin" unicode="&#x192;" horiz-adv-x="407" 
d="M58 273h62l-46 -279q-9 -51 -27 -69.5t-51 -18.5q-17 0 -33 7l-42 -96q15 -6 34 -10.5t46 -4.5q32 0 59 7.5t50.5 27t41 54.5t26.5 87l49 295h111v104h-94l13 78q8 48 24.5 65t44.5 17q23 0 42 -8l45 99q-43 13 -95 13q-66 0 -108.5 -40.5t-55.5 -118.5l-17 -105h-79
v-104z" />
    <glyph glyph-name="quotedblbase" unicode="&#x201e;" horiz-adv-x="352" 
d="M48 -83l104 70v116h-104v-186zM200 -83l104 70v116h-104v-186z" />
    <glyph glyph-name="ellipsis" unicode="&#x2026;" horiz-adv-x="1000" 
d="M106 48q0 -25 18 -43t43 -18t43 18t18 43t-18 43t-43 18t-43 -18t-18 -43zM439 48q0 -25 18 -43t43 -18t43 18t18 43t-18 43t-43 18t-43 -18t-18 -43zM772 48q0 -25 18 -43t43 -18t43 18t18 43t-18 43t-43 18t-43 -18t-18 -43z" />
    <glyph glyph-name="dagger" unicode="&#x2020;" horiz-adv-x="444" 
d="M167 0h110v386h139v74h-139v168h-110v-168h-139v-74h139v-386z" />
    <glyph glyph-name="daggerdbl" unicode="&#x2021;" horiz-adv-x="444" 
d="M167 233h-139v-68h139v-165h110v165h139v68h-139v162h139v68h-139v165h-110v-165h-139v-68h139v-162z" />
    <glyph glyph-name="circumflex" unicode="&#x2c6;" horiz-adv-x="240" 
d="M8 537l112 39l112 -39v67l-112 37l-112 -37v-67z" />
    <glyph glyph-name="perthousand" unicode="&#x2030;" horiz-adv-x="704" 
d="M269 111q0 -39 27.5 -66.5t66.5 -27.5t66.5 27.5t27.5 66.5t-27.5 66.5t-66.5 27.5t-66.5 -27.5t-27.5 -66.5zM321 111q0 17 12.5 29.5t29.5 12.5t29.5 -12.5t12.5 -29.5t-12.5 -29.5t-29.5 -12.5t-29.5 12.5t-12.5 29.5zM24 517q0 -39 27.5 -66.5t66.5 -27.5t66.5 27.5
t27.5 66.5t-27.5 66.5t-66.5 27.5t-66.5 -27.5t-27.5 -66.5zM76 517q0 17 12.5 29.5t29.5 12.5t29.5 -12.5t12.5 -29.5t-12.5 -29.5t-29.5 -12.5t-29.5 12.5t-12.5 29.5zM492 111q0 -39 27.5 -66.5t66.5 -27.5t66.5 27.5t27.5 66.5t-27.5 66.5t-66.5 27.5t-66.5 -27.5
t-27.5 -66.5zM544 111q0 17 12.5 29.5t29.5 12.5t29.5 -12.5t12.5 -29.5t-12.5 -29.5t-29.5 -12.5t-29.5 12.5t-12.5 29.5zM88 0h96l208 628h-96z" />
    <glyph glyph-name="Scaron" unicode="&#x160;" 
d="M418 785l-112 -39l-112 39v-67l112 -37l112 37v67zM25 103q56 -59 127 -87.5t142 -28.5q54 0 104 14.5t89 42t61.5 66.5t22.5 87q0 53 -21.5 87.5t-56.5 52.5t-74 26t-96 16q-42 5 -67 9.5t-45.5 12.5t-32.5 22t-12 35q0 33 33 59t99 26q47 0 88 -17t82 -58l86 77
q-94 96 -250 96q-53 0 -100.5 -13.5t-83.5 -39t-56 -60.5t-20 -76q0 -52 21.5 -86t56.5 -52t72 -26t98 -16q39 -6 65 -10.5t47 -12.5t33 -22.5t12 -35.5q0 -44 -41 -68.5t-109 -25.5q-53 0 -101 23t-85 62z" />
    <glyph glyph-name="guilsinglleft" unicode="&#x2039;" horiz-adv-x="333" 
d="M48 274l148 -223l89 31l-135 192l135 192l-89 31z" />
    <glyph glyph-name="OE" unicode="&#x152;" horiz-adv-x="1093" 
d="M586 0h478v110h-368v143h257v110h-257v155h368v110h-478v-73h-2q-31 42 -84.5 64t-119.5 22q-69 0 -131 -25t-108 -69.5t-72 -104.5t-26 -128t26 -127.5t72.5 -104.5t108 -70t130.5 -25q57 0 112 23.5t92 71.5h2v-82zM512 253h74q-21 -69 -76.5 -112.5t-129.5 -43.5
q-42 0 -81 16.5t-69 46.5t-47.5 69.5t-17.5 84.5t17.5 84.5t47.5 69.5t69 46.5t81 16.5q76 0 134 -47.5t75 -120.5h-77v-110z" />
    <glyph glyph-name="quoteleft" unicode="&#x2018;" horiz-adv-x="222" 
d="M163 628l-104 -70v-116h104v186z" />
    <glyph glyph-name="quoteright" unicode="&#x2019;" horiz-adv-x="222" 
d="M59 442l104 70v116h-104v-186z" />
    <glyph glyph-name="quotedblleft" unicode="&#x201c;" horiz-adv-x="352" 
d="M152 628l-104 -70v-116h104v186zM304 628l-104 -70v-116h104v186z" />
    <glyph glyph-name="quotedblright" unicode="&#x201d;" horiz-adv-x="352" 
d="M200 442l104 70v116h-104v-186zM48 442l104 70v116h-104v-186z" />
    <glyph glyph-name="bullet" unicode="&#x2022;" horiz-adv-x="500" 
d="M93 314q0 -32 12 -60.5t34 -50.5t50.5 -34t60.5 -12t60.5 12t50.5 34t34 50.5t12 60.5t-12 60.5t-34 50.5t-50.5 34t-60.5 12t-60.5 -12t-50.5 -34t-34 -50.5t-12 -60.5z" />
    <glyph glyph-name="endash" unicode="&#x2013;" horiz-adv-x="500" 
d="M0 278h500v86h-500v-86z" />
    <glyph glyph-name="emdash" unicode="&#x2014;" horiz-adv-x="1000" 
d="M0 278h1000v86h-1000v-86z" />
    <glyph glyph-name="tilde" unicode="&#x2dc;" horiz-adv-x="240" 
d="M14 544q22 23 49 23q16 0 28.5 -5t27.5 -14q13 -9 22.5 -13t21.5 -4q15 0 33 9.5t30 20.5v67q-23 -29 -50 -29q-19 0 -52 20q-27 16 -41 16q-44 0 -69 -30v-61z" />
    <glyph glyph-name="trademark" unicode="&#x2122;" horiz-adv-x="1000" 
d="M440 216h92v292h2l108 -292h76l108 292h2v-292h92v412h-140l-99 -260h-2l-99 260h-140v-412zM137 216h104v332h117v80h-338v-80h117v-332z" />
    <glyph glyph-name="scaron" unicode="&#x161;" horiz-adv-x="463" 
d="M344 641l-112 -39l-112 39v-67l112 -37l112 37v67zM20 72q100 -85 218 -85q52 0 91.5 14.5t64.5 39t37 53t12 56.5q0 105 -128 129l-105 20q-63 11 -63 51q0 28 26.5 44.5t62.5 16.5q29 0 62 -12t68 -42l59 73q-49 35 -95 51t-97 16q-87 0 -138.5 -46.5t-51.5 -111.5
q0 -55 38 -87.5t136 -50.5l59 -11q30 -5 46.5 -19t16.5 -37q0 -22 -27 -41.5t-69 -19.5q-39 0 -81 20t-71 51z" />
    <glyph glyph-name="guilsinglright" unicode="&#x203a;" horiz-adv-x="333" 
d="M48 82l89 -31l148 223l-148 223l-89 -31l135 -192z" />
    <glyph glyph-name="oe" unicode="&#x153;" horiz-adv-x="1000" 
d="M965 206v19q0 67 -23.5 119t-62.5 86t-84 50.5t-87 16.5q-65 0 -116.5 -28t-86.5 -80q-33 51 -87.5 79.5t-115.5 28.5q-65 0 -115.5 -22t-84 -59t-50.5 -82.5t-17 -91.5t17 -91t50.5 -82.5t84 -59.5t115.5 -22q63 0 115 28t88 82q33 -53 86 -81.5t117 -28.5
q68 1 127.5 31.5t103.5 86.5l-88 49q-56 -75 -140 -75q-55 0 -96.5 31.5t-57.5 95.5h408zM557 292q17 53 55 83t88 30t88 -30t55 -83h-286zM145 242q0 66 45 111.5t112 45.5q68 0 112.5 -45.5t44.5 -111.5t-44.5 -111.5t-112.5 -45.5q-67 0 -112 45.5t-45 111.5z" />
    <glyph glyph-name="Ydieresis" unicode="&#x178;" horiz-adv-x="574" 
d="M164 733q0 -22 15 -37t37 -15t37 15t15 37t-15 37t-37 15t-37 -15t-15 -37zM306 733q0 -22 15 -37t37 -15t37 15t15 37t-15 37t-37 15t-37 -15t-15 -37zM229 0h116v277l225 351h-134l-149 -244l-149 244h-134l225 -351v-277z" />
    <glyph glyph-name="exclamdown" unicode="&#xa1;" horiz-adv-x="278" 
d="M69 -144h140l-26 466h-88zM78 436q0 -25 18 -43t43 -18t43 18t18 43t-18 43t-43 18t-43 -18t-18 -43z" />
    <glyph glyph-name="cent" unicode="&#xa2;" horiz-adv-x="536" 
d="M236 -85h104v76q54 10 100.5 40t73.5 73l-91 54q-23 -33 -56 -53t-70 -20q-32 0 -60.5 12t-50.5 34t-34 50.5t-12 60.5t12 60.5t34 50.5t50.5 34t60.5 12q37 0 69.5 -20t56.5 -53l91 54q-31 45 -75 74.5t-99 38.5v76h-104v-78q-47 -10 -85.5 -35t-65.5 -60t-41 -75
t-14 -79t14 -79t41 -74.5t65.5 -59.5t85.5 -35v-79z" />
    <glyph glyph-name="sterling" unicode="&#xa3;" horiz-adv-x="444" 
d="M12 0h396v110h-224q20 24 27 73l15 90h148v104h-130l13 76q15 90 82 90q29 0 57 -19l18 104q-36 13 -87 13q-73 0 -117.5 -41t-56.5 -115l-18 -108h-80v-104h63l-16 -98q-8 -49 -28 -71t-62 -24v-80z" />
    <glyph glyph-name="currency" unicode="&#xa4;" horiz-adv-x="600" 
d="M156 314q0 63 41.5 106.5t102.5 43.5t102.5 -43.5t41.5 -106.5t-41.5 -106.5t-102.5 -43.5t-102.5 43.5t-41.5 106.5zM103 53l56 57q63 -44 141 -44t141 44l56 -57l61 61l-56 56q46 63 46 144t-46 144l56 56l-61 61l-56 -57q-63 44 -141 44t-141 -44l-56 57l-61 -61
l56 -56q-46 -63 -46 -144t46 -144l-56 -56z" />
    <glyph glyph-name="yen" unicode="&#xa5;" horiz-adv-x="536" 
d="M216 0h104v134h145v74h-145v51h145v74h-110l177 295h-122l-139 -244l-142 244h-125l177 -295h-110v-74h145v-51h-145v-74h145v-134z" />
    <glyph glyph-name="brokenbar" unicode="&#xa6;" horiz-adv-x="222" 
d="M59 -13h104v236h-104v-236zM59 405h104v236h-104v-236z" />
    <glyph glyph-name="section" unicode="&#xa7;" horiz-adv-x="593" 
d="M54 58q35 -33 86 -52t101 -19q48 0 85.5 12t61 31t35 39.5t11.5 36.5q0 26 -12 51q4 -1 13 -1q19 0 41 9t42 27.5t32.5 45.5t12.5 62q0 106 -119 136l-159 40q-20 5 -28 13.5t-8 21.5q0 17 17 27.5t45 10.5q68 0 119 -52l67 74q-40 38 -86 54t-95 16q-34 0 -64 -10
t-53 -28t-35.5 -40.5t-12.5 -47.5q0 -11 9 -33l2 -6q-59 -1 -95.5 -39t-36.5 -91q0 -55 29 -90t82 -47l152 -34q43 -10 43 -41q0 -25 -22 -40t-56 -15q-85 0 -138 56zM187 296q-59 13 -59 50q0 21 12.5 35.5t33.5 14.5t50 -7l184 -40q31 -6 44 -19.5t13 -32.5
q0 -22 -13 -35.5t-30 -13.5q-22 0 -44 5z" />
    <glyph glyph-name="dieresis" unicode="&#xa8;" horiz-adv-x="240" 
d="M-3 589q0 -22 15 -37t37 -15t37 15t15 37t-15 37t-37 15t-37 -15t-15 -37zM139 589q0 -22 15 -37t37 -15t37 15t15 37t-15 37t-37 15t-37 -15t-15 -37z" />
    <glyph glyph-name="copyright" unicode="&#xa9;" horiz-adv-x="800" 
d="M568 374q-9 63 -52 98t-105 35q-84 0 -133.5 -54t-49.5 -139t49.5 -139t133.5 -54q62 0 105 35t52 98h-77q-6 -27 -28.5 -43t-50.5 -16q-43 0 -67.5 32.5t-24.5 86.5t24.5 86.5t67.5 32.5q28 0 50.5 -16t28.5 -43h77zM73 314q0 -67 25 -126.5t70.5 -105t105 -70.5
t126.5 -25t126.5 25t105 70.5t70.5 105t25 126.5t-25 126.5t-70.5 105t-105 70.5t-126.5 25t-126.5 -25t-105 -70.5t-70.5 -105t-25 -126.5zM159 314q0 54 19 100.5t52.5 81t77.5 53t92 18.5t92 -18.5t77.5 -53t52.5 -81t19 -100.5t-19 -100.5t-52.5 -81t-77.5 -53
t-92 -18.5t-92 18.5t-77.5 53t-52.5 81t-19 100.5z" />
    <glyph glyph-name="ordfeminine" unicode="&#xaa;" horiz-adv-x="398" 
d="M362 633h-86v-38h-2q-10 21 -35.5 33.5t-54.5 12.5q-72 0 -119 -43t-47 -110q0 -68 46 -110.5t116 -42.5q31 0 57.5 12.5t36.5 33.5h2v-38h86v290zM104 488q0 34 25 59.5t64 25.5q37 0 63 -25t26 -60q0 -33 -27 -59t-62 -26q-40 0 -64.5 25.5t-24.5 59.5z" />
    <glyph glyph-name="guillemotleft" unicode="&#xab;" horiz-adv-x="500" 
d="M42 274l148 -223l89 31l-135 192l135 192l-89 31zM221 274l148 -223l89 31l-135 192l135 192l-89 31z" />
    <glyph glyph-name="logicalnot" unicode="&#xac;" horiz-adv-x="600" 
d="M449 109h104v306h-506v-104h402v-202z" />
    <glyph glyph-name="minus" unicode="&#xad;" horiz-adv-x="600" 
d="M47 201h506v104h-506v-104z" />
    <glyph glyph-name="minus" unicode="&#x2212;" horiz-adv-x="600" 
d="M47 201h506v104h-506v-104z" />
    <glyph glyph-name="registered" unicode="&#xae;" horiz-adv-x="800" 
d="M350 285h28l87 -152h89l-91 155q45 7 66 32t21 66q0 111 -138 111h-142v-364h80v152zM350 435h69q20 0 35.5 -12t15.5 -32q0 -19 -15.5 -31.5t-35.5 -12.5h-69v88zM73 314q0 -67 25 -126.5t70.5 -105t105 -70.5t126.5 -25t126.5 25t105 70.5t70.5 105t25 126.5t-25 126.5
t-70.5 105t-105 70.5t-126.5 25t-126.5 -25t-105 -70.5t-70.5 -105t-25 -126.5zM159 314q0 54 19 100.5t52.5 81t77.5 53t92 18.5t92 -18.5t77.5 -53t52.5 -81t19 -100.5t-19 -100.5t-52.5 -81t-77.5 -53t-92 -18.5t-92 18.5t-77.5 53t-52.5 81t-19 100.5z" />
    <glyph glyph-name="macron" unicode="&#xaf;" horiz-adv-x="240" 
d="M6 554h228v62h-228v-62z" />
    <glyph glyph-name="degree" unicode="&#xb0;" horiz-adv-x="400" 
d="M57 498q0 -59 42 -101t101 -42t101 42t42 101t-42 101t-101 42t-101 -42t-42 -101zM125 498q0 31 22 53t53 22t53 -22t22 -53t-22 -53t-53 -22t-53 22t-22 53z" />
    <glyph glyph-name="plusminus" unicode="&#xb1;" horiz-adv-x="600" 
d="M246 373h-199v-104h199v-133h104v133h203v104h-203v133h-104v-133zM47 0h506v104h-506v-104z" />
    <glyph glyph-name="twosuperior" unicode="&#xb2;" horiz-adv-x="361" 
d="M27 256h315v68h-205v2l145 98q28 19 44.5 44t16.5 54q0 50 -42.5 84.5t-114.5 34.5q-55 0 -97.5 -22t-70.5 -60l70 -36q16 23 39 36.5t51 13.5q33 0 56 -15.5t23 -38.5q0 -26 -36 -52l-194 -142v-69z" />
    <glyph glyph-name="threesuperior" unicode="&#xb3;" horiz-adv-x="350" 
d="M30 560h159l-95 -107q28 7 49 7q51 0 80 -21t29 -52q0 -30 -26.5 -53t-66.5 -23q-24 0 -47 10.5t-43 27.5l-57 -51q52 -55 157 -55q78 0 123.5 42.5t45.5 98.5q0 48 -34 80.5t-79 35.5l113 128h-308v-68z" />
    <glyph glyph-name="acute" unicode="&#xb4;" horiz-adv-x="240" 
d="M42 537l196 50v72l-196 -50v-72z" />
    <glyph glyph-name="mu" unicode="&#xb5;" horiz-adv-x="574" 
d="M66 -167h104v216h2q19 -27 50.5 -44.5t71.5 -17.5q41 0 79.5 15t69 43.5t48 69t17.5 89.5v280h-104v-271q0 -53 -34 -87.5t-83 -34.5t-83 34.5t-34 87.5v271h-104v-651z" />
    <glyph glyph-name="paragraph" unicode="&#xb6;" horiz-adv-x="620" 
d="M236 0h92v554h86v-554h92v628h-260q-96 0 -146 -36.5t-50 -126.5q0 -158 186 -158v-307z" />
    <glyph glyph-name="periodcentered" unicode="&#xb7;" horiz-adv-x="268" 
d="M54 242q0 -33 23.5 -56.5t56.5 -23.5t56.5 23.5t23.5 56.5t-23.5 56.5t-56.5 23.5t-56.5 -23.5t-23.5 -56.5z" />
    <glyph glyph-name="periodcentered" unicode="&#x2219;" horiz-adv-x="268" 
d="M54 242q0 -33 23.5 -56.5t56.5 -23.5t56.5 23.5t23.5 56.5t-23.5 56.5t-56.5 23.5t-56.5 -23.5t-23.5 -56.5z" />
    <glyph glyph-name="cedilla" unicode="&#xb8;" horiz-adv-x="240" 
d="M127 -182q38 2 62 23.5t24 60.5q0 35 -24.5 55.5t-61.5 22.5v-52q15 -1 24.5 -9t9.5 -20t-9.5 -20t-24.5 -9v-52z" />
    <glyph glyph-name="onesuperior" unicode="&#xb9;" horiz-adv-x="205" 
d="M79 256h86v385l-147 -72v-79l61 34v-268z" />
    <glyph glyph-name="ordmasculine" unicode="&#xba;" horiz-adv-x="386" 
d="M25 488q0 -27 11.5 -54.5t33 -49.5t53 -35.5t70.5 -13.5t70.5 13.5t53.5 36t33 49.5t11 54t-11 54.5t-33 50t-53.5 35.5t-70.5 13t-70.5 -13t-53 -35.5t-33 -50t-11.5 -54.5zM111 488q0 34 23 56.5t59 22.5t59 -22.5t23 -56.5t-23 -56.5t-59 -22.5t-59 22.5t-23 56.5z
" />
    <glyph glyph-name="guillemotright" unicode="&#xbb;" horiz-adv-x="500" 
d="M458 274l-148 223l-89 -31l135 -192l-135 -192l89 -31zM279 274l-148 223l-89 -31l135 -192l-135 -192l89 -31z" />
    <glyph glyph-name="onequarter" unicode="&#xbc;" horiz-adv-x="814" 
d="M215 0h96l208 628h-96zM93 256h86v385l-147 -72v-79l61 34v-268zM653 0h80v82h49v74h-49v88h-80v-88h-87l107 221h-80l-137 -295h197v-82z" />
    <glyph glyph-name="onehalf" unicode="&#xbd;" horiz-adv-x="814" 
d="M188 0h96l208 628h-96zM93 256h86v385l-147 -72v-79l61 34v-268zM466 0h315v68h-205v2l145 98q28 19 44.5 44t16.5 54q0 50 -42.5 84.5t-114.5 34.5q-55 0 -97.5 -22t-70.5 -60l70 -36q16 23 39 36.5t51 13.5q33 0 56 -15.5t23 -38.5q0 -26 -36 -52l-194 -142v-69z" />
    <glyph glyph-name="threequarters" unicode="&#xbe;" horiz-adv-x="814" 
d="M270 0h96l208 628h-96zM30 560h159l-95 -107q28 7 49 7q51 0 80 -21t29 -52q0 -30 -26.5 -53t-66.5 -23q-24 0 -47 10.5t-43 27.5l-57 -51q52 -55 157 -55q78 0 123.5 42.5t45.5 98.5q0 48 -34 80.5t-79 35.5l113 128h-308v-68zM653 0h80v82h49v74h-49v88h-80v-88h-87
l107 221h-80l-137 -295h197v-82z" />
    <glyph glyph-name="questiondown" unicode="&#xbf;" horiz-adv-x="556" 
d="M349 322h-92v-44q-42 0 -79.5 -15t-65 -43t-43 -66.5t-15.5 -82.5q0 -50 18 -92t52 -72.5t80.5 -47t101.5 -16.5q130 0 213 97l-79 70q-31 -32 -63 -47.5t-71 -15.5q-55 0 -92.5 35t-37.5 88q0 55 40.5 89.5t103.5 34.5q16 0 29 -3v131zM364 436q0 25 -18 43t-43 18
t-43 -18t-18 -43t18 -43t43 -18t43 18t18 43z" />
    <glyph glyph-name="Agrave" unicode="&#xc0;" 
d="M164 731l196 -50v72l-196 50v-72zM0 0h124l48 118h266l48 -118h125l-266 628h-260v-104h144zM214 222l92 225l91 -225h-183z" />
    <glyph glyph-name="Aacute" unicode="&#xc1;" 
d="M204 681l196 50v72l-196 -50v-72zM0 0h124l48 118h266l48 -118h125l-266 628h-260v-104h144zM214 222l92 225l91 -225h-183z" />
    <glyph glyph-name="Acircumflex" unicode="&#xc2;" 
d="M170 681l112 39l112 -39v67l-112 37l-112 -37v-67zM0 0h124l48 118h266l48 -118h125l-266 628h-260v-104h144zM214 222l92 225l91 -225h-183z" />
    <glyph glyph-name="Atilde" unicode="&#xc3;" 
d="M176 688q22 23 49 23q16 0 28.5 -5t27.5 -14q13 -9 22.5 -13t21.5 -4q15 0 33 9.5t30 20.5v67q-23 -29 -50 -29q-19 0 -52 20q-27 16 -41 16q-44 0 -69 -30v-61zM0 0h124l48 118h266l48 -118h125l-266 628h-260v-104h144zM214 222l92 225l91 -225h-183z" />
    <glyph glyph-name="Adieresis" unicode="&#xc4;" 
d="M159 733q0 -22 15 -37t37 -15t37 15t15 37t-15 37t-37 15t-37 -15t-15 -37zM301 733q0 -22 15 -37t37 -15t37 15t15 37t-15 37t-37 15t-37 -15t-15 -37zM0 0h124l48 118h266l48 -118h125l-266 628h-260v-104h144zM214 222l92 225l91 -225h-183z" />
    <glyph glyph-name="Aring" unicode="&#xc5;" 
d="M206 749q0 -32 22 -54t54 -22t54 22t22 54t-22 54t-54 22t-54 -22t-22 -54zM246 749q0 15 10.5 25.5t25.5 10.5t25.5 -10.5t10.5 -25.5t-10.5 -25.5t-25.5 -10.5t-25.5 10.5t-10.5 25.5zM0 0h124l48 118h266l48 -118h125l-266 628h-260v-104h144zM214 222l92 225l91 -225
h-183z" />
    <glyph glyph-name="AE" unicode="&#xc6;" horiz-adv-x="852" 
d="M8 0h120l52 118h157v-118h476v110h-366v157h253v110h-253v141h366v110h-704v-104h145zM337 222h-111l109 245h2v-245z" />
    <glyph glyph-name="Ccedilla" unicode="&#xc7;" horiz-adv-x="667" 
d="M544 184q-30 -41 -75.5 -64t-98.5 -23q-42 0 -81 16.5t-69 46.5t-47.5 69.5t-17.5 84.5t17.5 84.5t47.5 69.5t69 46.5t81 16.5q53 0 97.5 -23.5t74.5 -67.5l96 72q-51 64 -120.5 96.5t-147.5 32.5q-69 0 -131 -25t-108 -69.5t-72 -104.5t-26 -128t26 -127.5t72.5 -104.5
t108 -70t130.5 -25q78 0 147.5 32.5t120.5 96.5zM341 -182q38 2 62 23.5t24 60.5q0 35 -24.5 55.5t-61.5 22.5v-52q15 -1 24.5 -9t9.5 -20t-9.5 -20t-24.5 -9v-52z" />
    <glyph glyph-name="Egrave" unicode="&#xc8;" 
d="M188 731l196 -50v72l-196 50v-72zM90 0h482v110h-366v157h255v110h-255v141h366v110h-482v-251h-75v-110h75v-267z" />
    <glyph glyph-name="Eacute" unicode="&#xc9;" 
d="M228 681l196 50v72l-196 -50v-72zM90 0h482v110h-366v157h255v110h-255v141h366v110h-482v-251h-75v-110h75v-267z" />
    <glyph glyph-name="Ecircumflex" unicode="&#xca;" 
d="M194 681l112 39l112 -39v67l-112 37l-112 -37v-67zM90 0h482v110h-366v157h255v110h-255v141h366v110h-482v-251h-75v-110h75v-267z" />
    <glyph glyph-name="Edieresis" unicode="&#xcb;" 
d="M183 733q0 -22 15 -37t37 -15t37 15t15 37t-15 37t-37 15t-37 -15t-15 -37zM325 733q0 -22 15 -37t37 -15t37 15t15 37t-15 37t-37 15t-37 -15t-15 -37zM90 0h482v110h-366v157h255v110h-255v141h366v110h-482v-251h-75v-110h75v-267z" />
    <glyph glyph-name="Igrave" unicode="&#xcc;" horiz-adv-x="278" 
d="M21 731l196 -50v72l-196 50v-72zM81 0h116v628h-116v-628z" />
    <glyph glyph-name="Iacute" unicode="&#xcd;" horiz-adv-x="278" 
d="M61 681l196 50v72l-196 -50v-72zM81 0h116v628h-116v-628z" />
    <glyph glyph-name="Icircumflex" unicode="&#xce;" horiz-adv-x="278" 
d="M27 681l112 39l112 -39v67l-112 37l-112 -37v-67zM81 0h116v628h-116v-628z" />
    <glyph glyph-name="Idieresis" unicode="&#xcf;" horiz-adv-x="278" 
d="M16 733q0 -22 15 -37t37 -15t37 15t15 37t-15 37t-37 15t-37 -15t-15 -37zM158 733q0 -22 15 -37t37 -15t37 15t15 37t-15 37t-37 15t-37 -15t-15 -37zM81 0h116v628h-116v-628z" />
    <glyph glyph-name="Eth" unicode="&#xd0;" horiz-adv-x="722" 
d="M12 279h75v-279h265q76 0 138.5 25t107 69t68 101t23.5 119q0 63 -23 119.5t-67 100.5t-106.5 69t-140.5 25h-265v-251h-75v-98zM414 377h-211v141h149q50 0 91 -16t70 -44t44.5 -65t15.5 -79q0 -41 -15.5 -78.5t-44.5 -65.5t-70 -44t-91 -16h-149v169h211v98z" />
    <glyph glyph-name="Ntilde" unicode="&#xd1;" horiz-adv-x="667" 
d="M208 668q22 23 49 23q16 0 28.5 -5t27.5 -14q13 -9 22.5 -13t21.5 -4q15 0 33 9.5t30 20.5v67q-23 -29 -50 -29q-19 0 -52 20q-27 16 -41 16q-44 0 -69 -30v-61zM594 -13v641h-116v-385l-405 398v-641h116v385z" />
    <glyph glyph-name="Ograve" unicode="&#xd2;" horiz-adv-x="740" 
d="M252 731l196 -50v72l-196 50v-72zM33 314q0 -68 26 -127.5t72.5 -104.5t108 -70t130.5 -25q70 0 131.5 25t107.5 69.5t72 104.5t26 128t-25.5 128t-72.5 104.5t-108 69.5t-131 25q-69 0 -131 -25t-108 -69.5t-72 -104.5t-26 -128zM155 314q0 45 17.5 84.5t47.5 69.5
t69 46.5t81 16.5t81 -16.5t69.5 -46.5t47.5 -69.5t17 -84.5t-17 -84.5t-47.5 -69.5t-69.5 -46.5t-81 -16.5t-81 16.5t-69 46.5t-47.5 69.5t-17.5 84.5z" />
    <glyph glyph-name="Oacute" unicode="&#xd3;" horiz-adv-x="740" 
d="M292 681l196 50v72l-196 -50v-72zM33 314q0 -68 26 -127.5t72.5 -104.5t108 -70t130.5 -25q70 0 131.5 25t107.5 69.5t72 104.5t26 128t-25.5 128t-72.5 104.5t-108 69.5t-131 25q-69 0 -131 -25t-108 -69.5t-72 -104.5t-26 -128zM155 314q0 45 17.5 84.5t47.5 69.5
t69 46.5t81 16.5t81 -16.5t69.5 -46.5t47.5 -69.5t17 -84.5t-17 -84.5t-47.5 -69.5t-69.5 -46.5t-81 -16.5t-81 16.5t-69 46.5t-47.5 69.5t-17.5 84.5z" />
    <glyph glyph-name="Ocircumflex" unicode="&#xd4;" horiz-adv-x="740" 
d="M258 681l112 39l112 -39v67l-112 37l-112 -37v-67zM33 314q0 -68 26 -127.5t72.5 -104.5t108 -70t130.5 -25q70 0 131.5 25t107.5 69.5t72 104.5t26 128t-25.5 128t-72.5 104.5t-108 69.5t-131 25q-69 0 -131 -25t-108 -69.5t-72 -104.5t-26 -128zM155 314
q0 45 17.5 84.5t47.5 69.5t69 46.5t81 16.5t81 -16.5t69.5 -46.5t47.5 -69.5t17 -84.5t-17 -84.5t-47.5 -69.5t-69.5 -46.5t-81 -16.5t-81 16.5t-69 46.5t-47.5 69.5t-17.5 84.5z" />
    <glyph glyph-name="Otilde" unicode="&#xd5;" horiz-adv-x="740" 
d="M264 688q22 23 49 23q16 0 28.5 -5t27.5 -14q13 -9 22.5 -13t21.5 -4q15 0 33 9.5t30 20.5v67q-23 -29 -50 -29q-19 0 -52 20q-27 16 -41 16q-44 0 -69 -30v-61zM33 314q0 -68 26 -127.5t72.5 -104.5t108 -70t130.5 -25q70 0 131.5 25t107.5 69.5t72 104.5t26 128
t-25.5 128t-72.5 104.5t-108 69.5t-131 25q-69 0 -131 -25t-108 -69.5t-72 -104.5t-26 -128zM155 314q0 45 17.5 84.5t47.5 69.5t69 46.5t81 16.5t81 -16.5t69.5 -46.5t47.5 -69.5t17 -84.5t-17 -84.5t-47.5 -69.5t-69.5 -46.5t-81 -16.5t-81 16.5t-69 46.5t-47.5 69.5
t-17.5 84.5z" />
    <glyph glyph-name="Odieresis" unicode="&#xd6;" horiz-adv-x="740" 
d="M247 733q0 -22 15 -37t37 -15t37 15t15 37t-15 37t-37 15t-37 -15t-15 -37zM389 733q0 -22 15 -37t37 -15t37 15t15 37t-15 37t-37 15t-37 -15t-15 -37zM33 314q0 -68 26 -127.5t72.5 -104.5t108 -70t130.5 -25q70 0 131.5 25t107.5 69.5t72 104.5t26 128t-25.5 128
t-72.5 104.5t-108 69.5t-131 25q-69 0 -131 -25t-108 -69.5t-72 -104.5t-26 -128zM155 314q0 45 17.5 84.5t47.5 69.5t69 46.5t81 16.5t81 -16.5t69.5 -46.5t47.5 -69.5t17 -84.5t-17 -84.5t-47.5 -69.5t-69.5 -46.5t-81 -16.5t-81 16.5t-69 46.5t-47.5 69.5t-17.5 84.5z
" />
    <glyph glyph-name="multiply" unicode="&#xd7;" horiz-adv-x="600" 
d="M228 253l-162 -162l72 -72l162 162l162 -162l72 72l-163 162l163 162l-72 72l-162 -162l-162 162l-72 -72z" />
    <glyph glyph-name="Oslash" unicode="&#xd8;" horiz-adv-x="740" 
d="M44 40l52 -53l67 67q44 -32 97 -49.5t110 -17.5q70 0 131.5 25t107.5 69.5t72 104.5t26 128q0 59 -19.5 112.5t-56.5 96.5l65 65l-52 53l-67 -67q-44 32 -96.5 49.5t-110.5 17.5q-69 0 -131 -25t-108 -69.5t-72 -104.5t-26 -128q0 -59 19.5 -112.5t56.5 -96.5zM195 191
q-40 54 -40 123q0 45 17.5 84.5t47.5 69.5t69 46.5t81 16.5q68 0 123 -41zM546 437q39 -55 39 -123q0 -45 -17 -84.5t-47.5 -69.5t-69.5 -46.5t-81 -16.5q-68 0 -123 41z" />
    <glyph glyph-name="Ugrave" unicode="&#xd9;" horiz-adv-x="704" 
d="M234 731l196 -50v72l-196 50v-72zM73 256q0 -54 20 -103t57 -86.5t88.5 -58.5t113.5 -21t113.5 21t88.5 58.5t57 86.5t20 103v372h-116v-347q0 -84 -46.5 -134t-116.5 -50q-69 0 -116 50t-47 134v347h-116v-372z" />
    <glyph glyph-name="Uacute" unicode="&#xda;" horiz-adv-x="704" 
d="M274 681l196 50v72l-196 -50v-72zM73 256q0 -54 20 -103t57 -86.5t88.5 -58.5t113.5 -21t113.5 21t88.5 58.5t57 86.5t20 103v372h-116v-347q0 -84 -46.5 -134t-116.5 -50q-69 0 -116 50t-47 134v347h-116v-372z" />
    <glyph glyph-name="Ucircumflex" unicode="&#xdb;" horiz-adv-x="704" 
d="M240 681l112 39l112 -39v67l-112 37l-112 -37v-67zM73 256q0 -54 20 -103t57 -86.5t88.5 -58.5t113.5 -21t113.5 21t88.5 58.5t57 86.5t20 103v372h-116v-347q0 -84 -46.5 -134t-116.5 -50q-69 0 -116 50t-47 134v347h-116v-372z" />
    <glyph glyph-name="Udieresis" unicode="&#xdc;" horiz-adv-x="704" 
d="M229 733q0 -22 15 -37t37 -15t37 15t15 37t-15 37t-37 15t-37 -15t-15 -37zM371 733q0 -22 15 -37t37 -15t37 15t15 37t-15 37t-37 15t-37 -15t-15 -37zM73 256q0 -54 20 -103t57 -86.5t88.5 -58.5t113.5 -21t113.5 21t88.5 58.5t57 86.5t20 103v372h-116v-347
q0 -84 -46.5 -134t-116.5 -50q-69 0 -116 50t-47 134v347h-116v-372z" />
    <glyph glyph-name="Yacute" unicode="&#xdd;" horiz-adv-x="574" 
d="M209 681l196 50v72l-196 -50v-72zM229 0h116v277l225 351h-134l-149 -244l-149 244h-134l225 -351v-277z" />
    <glyph glyph-name="Thorn" unicode="&#xde;" horiz-adv-x="630" 
d="M15 120h75v-120h116v120h183q103 0 164.5 60.5t61.5 154.5t-61.5 154.5t-164.5 60.5h-183v78h-116v-398h-75v-110zM206 440h174q58 0 88.5 -30t30.5 -75t-30.5 -75t-88.5 -30h-174v210z" />
    <glyph glyph-name="germandbls" unicode="&#xdf;" horiz-adv-x="537" 
d="M457 469q0 79 -54 125.5t-142 46.5q-90 0 -142.5 -51t-52.5 -136v-621h104v607q0 57 25 86t65 29q39 0 66 -25t27 -69q0 -38 -24.5 -61t-66.5 -24v-80q52 -3 86 -32.5t34 -76.5q0 -49 -30.5 -75.5t-78.5 -26.5q-13 0 -22 3l-16 -99q15 -2 45 -2q37 0 75.5 13.5t71 39
t52 62t19.5 80.5q0 29 -10.5 56t-28 49t-39 35.5t-42.5 15.5v2q41 17 60 50.5t19 78.5z" />
    <glyph glyph-name="agrave" unicode="&#xe0;" horiz-adv-x="612" 
d="M188 587l196 -50v72l-196 50v-72zM442 0h104v484h-104v-59h-2q-21 32 -61.5 52t-92.5 20q-56 0 -104 -22t-82 -59.5t-52 -83t-18 -90.5q0 -47 17 -93t50 -82.5t80 -58t104 -21.5q49 0 91.5 19.5t67.5 52.5h2v-59zM140 242q0 32 12 60.5t33.5 50.5t49.5 34t59 12
q30 0 58 -12t49 -34t33 -50.5t12 -60.5t-12 -60.5t-33 -50.5t-49 -34t-58 -12q-31 0 -59 12t-49.5 34t-33.5 50.5t-12 60.5z" />
    <glyph glyph-name="aacute" unicode="&#xe1;" horiz-adv-x="612" 
d="M228 537l196 50v72l-196 -50v-72zM442 0h104v484h-104v-59h-2q-21 32 -61.5 52t-92.5 20q-56 0 -104 -22t-82 -59.5t-52 -83t-18 -90.5q0 -47 17 -93t50 -82.5t80 -58t104 -21.5q49 0 91.5 19.5t67.5 52.5h2v-59zM140 242q0 32 12 60.5t33.5 50.5t49.5 34t59 12
q30 0 58 -12t49 -34t33 -50.5t12 -60.5t-12 -60.5t-33 -50.5t-49 -34t-58 -12q-31 0 -59 12t-49.5 34t-33.5 50.5t-12 60.5z" />
    <glyph glyph-name="acircumflex" unicode="&#xe2;" horiz-adv-x="612" 
d="M194 537l112 39l112 -39v67l-112 37l-112 -37v-67zM442 0h104v484h-104v-59h-2q-21 32 -61.5 52t-92.5 20q-56 0 -104 -22t-82 -59.5t-52 -83t-18 -90.5q0 -47 17 -93t50 -82.5t80 -58t104 -21.5q49 0 91.5 19.5t67.5 52.5h2v-59zM140 242q0 32 12 60.5t33.5 50.5
t49.5 34t59 12q30 0 58 -12t49 -34t33 -50.5t12 -60.5t-12 -60.5t-33 -50.5t-49 -34t-58 -12q-31 0 -59 12t-49.5 34t-33.5 50.5t-12 60.5z" />
    <glyph glyph-name="atilde" unicode="&#xe3;" horiz-adv-x="612" 
d="M200 544q22 23 49 23q16 0 28.5 -5t27.5 -14q13 -9 22.5 -13t21.5 -4q15 0 33 9.5t30 20.5v67q-23 -29 -50 -29q-19 0 -52 20q-27 16 -41 16q-44 0 -69 -30v-61zM442 0h104v484h-104v-59h-2q-21 32 -61.5 52t-92.5 20q-56 0 -104 -22t-82 -59.5t-52 -83t-18 -90.5
q0 -47 17 -93t50 -82.5t80 -58t104 -21.5q49 0 91.5 19.5t67.5 52.5h2v-59zM140 242q0 32 12 60.5t33.5 50.5t49.5 34t59 12q30 0 58 -12t49 -34t33 -50.5t12 -60.5t-12 -60.5t-33 -50.5t-49 -34t-58 -12q-31 0 -59 12t-49.5 34t-33.5 50.5t-12 60.5z" />
    <glyph glyph-name="adieresis" unicode="&#xe4;" horiz-adv-x="612" 
d="M183 589q0 -22 15 -37t37 -15t37 15t15 37t-15 37t-37 15t-37 -15t-15 -37zM325 589q0 -22 15 -37t37 -15t37 15t15 37t-15 37t-37 15t-37 -15t-15 -37zM442 0h104v484h-104v-59h-2q-21 32 -61.5 52t-92.5 20q-56 0 -104 -22t-82 -59.5t-52 -83t-18 -90.5q0 -47 17 -93
t50 -82.5t80 -58t104 -21.5q49 0 91.5 19.5t67.5 52.5h2v-59zM140 242q0 32 12 60.5t33.5 50.5t49.5 34t59 12q30 0 58 -12t49 -34t33 -50.5t12 -60.5t-12 -60.5t-33 -50.5t-49 -34t-58 -12q-31 0 -59 12t-49.5 34t-33.5 50.5t-12 60.5z" />
    <glyph glyph-name="aring" unicode="&#xe5;" horiz-adv-x="612" 
d="M218 605q0 -32 22 -54t54 -22t54 22t22 54t-22 54t-54 22t-54 -22t-22 -54zM258 605q0 15 10.5 25.5t25.5 10.5t25.5 -10.5t10.5 -25.5t-10.5 -25.5t-25.5 -10.5t-25.5 10.5t-10.5 25.5zM442 0h104v484h-104v-59h-2q-21 32 -61.5 52t-92.5 20q-56 0 -104 -22t-82 -59.5
t-52 -83t-18 -90.5q0 -47 17 -93t50 -82.5t80 -58t104 -21.5q49 0 91.5 19.5t67.5 52.5h2v-59zM140 242q0 32 12 60.5t33.5 50.5t49.5 34t59 12q30 0 58 -12t49 -34t33 -50.5t12 -60.5t-12 -60.5t-33 -50.5t-49 -34t-58 -12q-31 0 -59 12t-49.5 34t-33.5 50.5t-12 60.5z" />
    <glyph glyph-name="ae" unicode="&#xe6;" horiz-adv-x="1000" 
d="M145 242q0 32 12 60.5t33.5 50.5t49.5 34t59 12q30 0 58 -12t49 -34t33 -50.5t12 -60.5t-12 -60.5t-33 -50.5t-49 -34t-58 -12q-31 0 -59 12t-49.5 34t-33.5 50.5t-12 60.5zM447 0h92v64h2q16 -30 66 -53.5t101 -23.5q68 1 127.5 31.5t103.5 86.5l-88 49
q-56 -75 -140 -75q-55 0 -96.5 31.5t-57.5 95.5h408v19q0 67 -23.5 119t-62.5 86t-84 50.5t-87 16.5q-50 0 -94.5 -20.5t-72.5 -56.5h-2v64h-92v-59h-2q-21 32 -61.5 52t-92.5 20q-56 0 -104 -22t-82 -59.5t-52 -83t-18 -90.5q0 -47 17 -93t50 -82.5t80 -58t104 -21.5
q49 0 91.5 19.5t67.5 52.5h2v-59zM557 292q17 53 55 83t88 30t88 -30t55 -83h-286z" />
    <glyph glyph-name="ccedilla" unicode="&#xe7;" horiz-adv-x="537" 
d="M514 380q-38 55 -91 86t-126 31q-61 0 -111 -21t-85 -57.5t-53 -82.5t-18 -94t18 -94t53 -82.5t85 -57.5t111 -21q68 0 126 32.5t91 84.5l-91 54q-22 -35 -53.5 -54t-72.5 -19q-67 0 -112 45.5t-45 111.5t45 111.5t112 45.5q42 0 73 -19t53 -54zM276 -182q38 2 62 23.5
t24 60.5q0 35 -24.5 55.5t-61.5 22.5v-52q15 -1 24.5 -9t9.5 -20t-9.5 -20t-24.5 -9v-52z" />
    <glyph glyph-name="egrave" unicode="&#xe8;" horiz-adv-x="594" 
d="M179 587l196 -50v72l-196 50v-72zM442 154q-56 -75 -140 -75q-56 0 -100 36.5t-48 90.5h402v19q0 67 -23.5 119t-62 86t-82 50.5t-83.5 16.5q-61 0 -111 -21t-85 -57.5t-53 -82.5t-18 -94t18 -94t53 -82.5t85 -57.5t111 -21q64 1 122.5 32t102.5 86zM154 292q13 53 50 83
t87 30t88.5 -29t54.5 -84h-280z" />
    <glyph glyph-name="eacute" unicode="&#xe9;" horiz-adv-x="594" 
d="M219 537l196 50v72l-196 -50v-72zM442 154q-56 -75 -140 -75q-56 0 -100 36.5t-48 90.5h402v19q0 67 -23.5 119t-62 86t-82 50.5t-83.5 16.5q-61 0 -111 -21t-85 -57.5t-53 -82.5t-18 -94t18 -94t53 -82.5t85 -57.5t111 -21q64 1 122.5 32t102.5 86zM154 292q13 53 50 83
t87 30t88.5 -29t54.5 -84h-280z" />
    <glyph glyph-name="ecircumflex" unicode="&#xea;" horiz-adv-x="594" 
d="M185 537l112 39l112 -39v67l-112 37l-112 -37v-67zM442 154q-56 -75 -140 -75q-56 0 -100 36.5t-48 90.5h402v19q0 67 -23.5 119t-62 86t-82 50.5t-83.5 16.5q-61 0 -111 -21t-85 -57.5t-53 -82.5t-18 -94t18 -94t53 -82.5t85 -57.5t111 -21q64 1 122.5 32t102.5 86z
M154 292q13 53 50 83t87 30t88.5 -29t54.5 -84h-280z" />
    <glyph glyph-name="edieresis" unicode="&#xeb;" horiz-adv-x="594" 
d="M174 589q0 -22 15 -37t37 -15t37 15t15 37t-15 37t-37 15t-37 -15t-15 -37zM316 589q0 -22 15 -37t37 -15t37 15t15 37t-15 37t-37 15t-37 -15t-15 -37zM442 154q-56 -75 -140 -75q-56 0 -100 36.5t-48 90.5h402v19q0 67 -23.5 119t-62 86t-82 50.5t-83.5 16.5
q-61 0 -111 -21t-85 -57.5t-53 -82.5t-18 -94t18 -94t53 -82.5t85 -57.5t111 -21q64 1 122.5 32t102.5 86zM154 292q13 53 50 83t87 30t88.5 -29t54.5 -84h-280z" />
    <glyph glyph-name="igrave" unicode="&#xec;" horiz-adv-x="240" 
d="M2 587l196 -50v72l-196 50v-72zM68 0h104v484h-104v-484z" />
    <glyph glyph-name="iacute" unicode="&#xed;" horiz-adv-x="240" 
d="M42 537l196 50v72l-196 -50v-72zM68 0h104v484h-104v-484z" />
    <glyph glyph-name="icircumflex" unicode="&#xee;" horiz-adv-x="240" 
d="M8 537l112 39l112 -39v67l-112 37l-112 -37v-67zM68 0h104v484h-104v-484z" />
    <glyph glyph-name="idieresis" unicode="&#xef;" horiz-adv-x="240" 
d="M-3 589q0 -22 15 -37t37 -15t37 15t15 37t-15 37t-37 15t-37 -15t-15 -37zM139 589q0 -22 15 -37t37 -15t37 15t15 37t-15 37t-37 15t-37 -15t-15 -37zM68 0h104v484h-104v-484z" />
    <glyph glyph-name="eth" unicode="&#xf0;" horiz-adv-x="594" 
d="M140 232q0 64 44.5 108t112.5 44t112.5 -44t44.5 -108q0 -65 -44.5 -109t-112.5 -44t-112.5 44t-44.5 109zM206 504l107 49q36 -28 66.5 -60.5t47.5 -63.5h-2q-48 47 -128 47q-61 0 -111 -20t-85 -55t-53 -79t-18 -90t18 -90t53 -79t85 -55.5t111 -20.5q59 0 108.5 20.5
t85 58.5t54.5 91t19 116q0 94 -44.5 176.5t-119.5 143.5l91 41l-47 46l-101 -47q-47 31 -98 48l-85 -48q42 -10 94 -41l-93 -43z" />
    <glyph glyph-name="ntilde" unicode="&#xf1;" horiz-adv-x="574" 
d="M181 544q22 23 49 23q16 0 28.5 -5t27.5 -14q13 -9 22.5 -13t21.5 -4q15 0 33 9.5t30 20.5v67q-23 -29 -50 -29q-19 0 -52 20q-27 16 -41 16q-44 0 -69 -30v-61zM66 0h104v271q0 58 33.5 90t85.5 32q54 0 84.5 -30t30.5 -94v-269h104v292q0 44 -15 82t-41 65.5t-60 42.5
t-72 15q-49 0 -87.5 -20t-60.5 -54h-2v61h-104v-484z" />
    <glyph glyph-name="ograve" unicode="&#xf2;" horiz-adv-x="594" 
d="M179 587l196 -50v72l-196 50v-72zM30 242q0 -48 18 -94t53 -82.5t85 -57.5t111 -21t111 21t85 57.5t53 82.5t18 94t-18 94t-53 82.5t-85 57.5t-111 21t-111 -21t-85 -57.5t-53 -82.5t-18 -94zM140 242q0 66 45 111.5t112 45.5q68 0 112.5 -45.5t44.5 -111.5t-44.5 -111.5
t-112.5 -45.5q-67 0 -112 45.5t-45 111.5z" />
    <glyph glyph-name="oacute" unicode="&#xf3;" horiz-adv-x="594" 
d="M219 537l196 50v72l-196 -50v-72zM30 242q0 -48 18 -94t53 -82.5t85 -57.5t111 -21t111 21t85 57.5t53 82.5t18 94t-18 94t-53 82.5t-85 57.5t-111 21t-111 -21t-85 -57.5t-53 -82.5t-18 -94zM140 242q0 66 45 111.5t112 45.5q68 0 112.5 -45.5t44.5 -111.5t-44.5 -111.5
t-112.5 -45.5q-67 0 -112 45.5t-45 111.5z" />
    <glyph glyph-name="ocircumflex" unicode="&#xf4;" horiz-adv-x="594" 
d="M185 537l112 39l112 -39v67l-112 37l-112 -37v-67zM30 242q0 -48 18 -94t53 -82.5t85 -57.5t111 -21t111 21t85 57.5t53 82.5t18 94t-18 94t-53 82.5t-85 57.5t-111 21t-111 -21t-85 -57.5t-53 -82.5t-18 -94zM140 242q0 66 45 111.5t112 45.5q68 0 112.5 -45.5
t44.5 -111.5t-44.5 -111.5t-112.5 -45.5q-67 0 -112 45.5t-45 111.5z" />
    <glyph glyph-name="otilde" unicode="&#xf5;" horiz-adv-x="594" 
d="M191 544q22 23 49 23q16 0 28.5 -5t27.5 -14q13 -9 22.5 -13t21.5 -4q15 0 33 9.5t30 20.5v67q-23 -29 -50 -29q-19 0 -52 20q-27 16 -41 16q-44 0 -69 -30v-61zM30 242q0 -48 18 -94t53 -82.5t85 -57.5t111 -21t111 21t85 57.5t53 82.5t18 94t-18 94t-53 82.5t-85 57.5
t-111 21t-111 -21t-85 -57.5t-53 -82.5t-18 -94zM140 242q0 66 45 111.5t112 45.5q68 0 112.5 -45.5t44.5 -111.5t-44.5 -111.5t-112.5 -45.5q-67 0 -112 45.5t-45 111.5z" />
    <glyph glyph-name="odieresis" unicode="&#xf6;" horiz-adv-x="594" 
d="M174 589q0 -22 15 -37t37 -15t37 15t15 37t-15 37t-37 15t-37 -15t-15 -37zM316 589q0 -22 15 -37t37 -15t37 15t15 37t-15 37t-37 15t-37 -15t-15 -37zM30 242q0 -48 18 -94t53 -82.5t85 -57.5t111 -21t111 21t85 57.5t53 82.5t18 94t-18 94t-53 82.5t-85 57.5t-111 21
t-111 -21t-85 -57.5t-53 -82.5t-18 -94zM140 242q0 66 45 111.5t112 45.5q68 0 112.5 -45.5t44.5 -111.5t-44.5 -111.5t-112.5 -45.5q-67 0 -112 45.5t-45 111.5z" />
    <glyph glyph-name="divide" unicode="&#xf7;" horiz-adv-x="600" 
d="M220 460q0 -33 23.5 -56.5t56.5 -23.5t56.5 23.5t23.5 56.5t-23.5 56.5t-56.5 23.5t-56.5 -23.5t-23.5 -56.5zM220 46q0 -33 23.5 -56.5t56.5 -23.5t56.5 23.5t23.5 56.5t-23.5 56.5t-56.5 23.5t-56.5 -23.5t-23.5 -56.5zM47 201h506v104h-506v-104z" />
    <glyph glyph-name="oslash" unicode="&#xf8;" horiz-adv-x="594" 
d="M166 154q-26 38 -26 88q0 66 45 111.5t112 45.5q50 0 87 -26zM428 330q26 -38 26 -88q0 -66 -44.5 -111.5t-112.5 -45.5q-50 0 -87 26zM46 33l43 -43l46 46q69 -49 162 -49q61 0 111 21t85 57.5t53 82.5t18 94q0 44 -15.5 86.5t-44.5 77.5l44 45l-43 43l-46 -46
q-70 49 -162 49q-61 0 -111 -21t-85 -57.5t-53 -82.5t-18 -94q0 -44 15.5 -86.5t45.5 -77.5z" />
    <glyph glyph-name="ugrave" unicode="&#xf9;" horiz-adv-x="574" 
d="M169 587l196 -50v72l-196 50v-72zM66 204q0 -49 18 -89.5t49 -69t71 -43.5t83 -15t83 15t71 43.5t49 69t18 89.5v280h-104v-271q0 -53 -34 -87.5t-83 -34.5t-83 34.5t-34 87.5v271h-104v-280z" />
    <glyph glyph-name="uacute" unicode="&#xfa;" horiz-adv-x="574" 
d="M209 537l196 50v72l-196 -50v-72zM66 204q0 -49 18 -89.5t49 -69t71 -43.5t83 -15t83 15t71 43.5t49 69t18 89.5v280h-104v-271q0 -53 -34 -87.5t-83 -34.5t-83 34.5t-34 87.5v271h-104v-280z" />
    <glyph glyph-name="ucircumflex" unicode="&#xfb;" horiz-adv-x="574" 
d="M175 537l112 39l112 -39v67l-112 37l-112 -37v-67zM66 204q0 -49 18 -89.5t49 -69t71 -43.5t83 -15t83 15t71 43.5t49 69t18 89.5v280h-104v-271q0 -53 -34 -87.5t-83 -34.5t-83 34.5t-34 87.5v271h-104v-280z" />
    <glyph glyph-name="udieresis" unicode="&#xfc;" horiz-adv-x="574" 
d="M164 589q0 -22 15 -37t37 -15t37 15t15 37t-15 37t-37 15t-37 -15t-15 -37zM306 589q0 -22 15 -37t37 -15t37 15t15 37t-15 37t-37 15t-37 -15t-15 -37zM66 204q0 -49 18 -89.5t49 -69t71 -43.5t83 -15t83 15t71 43.5t49 69t18 89.5v280h-104v-271q0 -53 -34 -87.5
t-83 -34.5t-83 34.5t-34 87.5v271h-104v-280z" />
    <glyph glyph-name="yacute" unicode="&#xfd;" horiz-adv-x="574" 
d="M209 537l196 50v72l-196 -50v-72zM66 204q0 -99 56 -158t140 -59q49 0 82 15.5t64 50.5h2v-26q0 -61 -37 -94t-92 -33q-32 0 -58.5 12.5t-52.5 38.5l-88 -54q41 -48 85.5 -71.5t119.5 -23.5q36 0 74 13t72 39.5t54.5 67t20.5 93.5v469h-104v-274q0 -58 -30.5 -91.5
t-89.5 -33.5q-51 0 -82.5 28.5t-31.5 86.5v284h-104v-280z" />
    <glyph glyph-name="thorn" unicode="&#xfe;" horiz-adv-x="612" 
d="M66 -167h104v226h2q21 -32 61.5 -52t92.5 -20q57 0 104.5 22t81.5 59.5t52 83t18 90.5q0 47 -17 93t-50 82.5t-80 58t-104 21.5q-49 0 -90 -18.5t-69 -53.5h-2v203h-104v-795zM472 242q0 -32 -12 -60.5t-33.5 -50.5t-49.5 -34t-59 -12q-30 0 -57.5 12t-49 34t-33.5 50.5
t-12 60.5t12 60.5t33.5 50.5t49 34t57.5 12q31 0 59 -12t49.5 -34t33.5 -50.5t12 -60.5z" />
    <glyph glyph-name="ydieresis" unicode="&#xff;" horiz-adv-x="574" 
d="M164 589q0 -22 15 -37t37 -15t37 15t15 37t-15 37t-37 15t-37 -15t-15 -37zM306 589q0 -22 15 -37t37 -15t37 15t15 37t-15 37t-37 15t-37 -15t-15 -37zM66 204q0 -99 56 -158t140 -59q49 0 82 15.5t64 50.5h2v-26q0 -61 -37 -94t-92 -33q-32 0 -58.5 12.5t-52.5 38.5
l-88 -54q41 -48 85.5 -71.5t119.5 -23.5q36 0 74 13t72 39.5t54.5 67t20.5 93.5v469h-104v-274q0 -58 -30.5 -91.5t-89.5 -33.5q-51 0 -82.5 28.5t-31.5 86.5v284h-104v-280z" />
    </font>
</defs>
</svg>
